<svg version="1.2" xmlns="http://www.w3.org/2000/svg" viewBox="0 0 80 80" width="80" height="80">
	<defs>
		<linearGradient id="g1" x2="1" gradientUnits="userSpaceOnUse" gradientTransform="matrix(80,-80,80,80,0,80)">
			<stop offset="0" stop-color="#4d27a8"/>
			<stop offset="1" stop-color="#a166ff"/>
		</linearGradient>
	</defs>
	<style>
		.s0 { fill: url(#g1) } 
		.s1 { fill: #ffffff } 
	</style>
	<g id="Icon-Architecture/64/Arch_Amazon-Virtual-Private-Cloud_64">
		<g id="Icon-Architecture-BG/64/Networking-Content-Delivery">
			<path id="Rectangle" fill-rule="evenodd" class="s0" d="m0 0h80v80h-80z"/>
			<path fill-rule="evenodd" class="s1" d="m21.11 58.62v0.88h-11.86c0 0 1.15-0.94 1.15-0.94l-1.04-0.82h13.57v1.76-0.88zm1.82 6.84q-0.86 0-1.82 0v-5.96h1.82zm0 7.7h0.01v1.75h-13.69l1.16-0.93c0 0-1.04-0.82-1.04-0.82h11.74v0.88h1.82zm-1.82-5.96h1.82v5.96h-1.82zm5.13-4.69l4.77 3.74-4.77 3.88v-2.93h0.8v-1.75c0 0-0.29 0-0.8 0zm-16.87 2.94c0 0 6.61 0 11.74 0v1.74h-11.86l1.16-0.94zm16.87 0v1.75h-3.31v-1.75c1.4 0 2.58 0 3.31 0zm-20.79-2.17l3.82 2.98-3.82 3.12zm0-7.71l3.82 2.99-3.82 3.11zm0 15.42l3.82 2.98-3.82 3.12z"/>
		</g>
		<path id="Amazon-Virtual-Private-Cloud_Icon_64_Squid" fill-rule="evenodd" class="s1" d="m63.94 62.57c-2.32 2.4-5.5 3.62-9.44 3.62-3.92 0-7.09-1.21-9.41-3.61-4.26-4.39-4.1-11.13-4.09-11.42v-13.97c0-0.4 0.25-0.77 0.63-0.92l12.5-5q0.37-0.15 0.74 0l12.5 5c0.38 0.15 0.63 0.52 0.63 0.92v14c0.01 0.25 0.19 6.98-4.06 11.38zm2.06-11.34v-13.36l-11.5-4.6-11.5 4.6v13.32c0 0.1-0.13 6.23 3.53 10.01 1.94 1.99 4.62 2.99 7.97 2.99 3.38 0 6.07-1.01 8-3.01 3.67-3.79 3.5-9.89 3.5-9.95zm-3 1.96c0 0.12 0.05 3.35-2.23 5.69-1.5 1.54-3.61 2.31-6.27 2.31-6.57 0-8.44-5.21-8.5-7.97v-12.53c0-0.4 0.25-0.77 0.63-0.92l7.5-3q0.37-0.15 0.74 0l7.5 3c0.38 0.15 0.63 0.52 0.63 0.92zm-9.5 5.95v-19.97l-5.5 2.2v11.82c0.01 0.21 0.23 5.36 5.5 5.95zm7.5-17.77l-5.5-2.2v19.95c1.61-0.16 2.9-0.69 3.82-1.62 1.7-1.73 1.68-4.26 1.68-4.29zm-37.95 5.83h14.95v2h-14.94c-6.08 0-10.72-4.05-11.04-9.64q-0.02-0.35-0.02-0.76c0-6.87 4.8-9.4 7.6-10.29q-0.03-0.48-0.03-0.97c0-5.45 3.89-11.16 9.05-13.27 6.06-2.48 12.44-1.28 17.08 3.21 1.56 1.52 2.75 3.14 3.61 4.93 1.2-1.03 2.66-1.59 4.22-1.59 3.3 0 6.8 2.6 7.4 7.56 2.18 0.55 4.92 1.72 6.86 4.2l-1.58 1.23c-1.78-2.28-4.47-3.24-6.41-3.63-0.44-0.09-0.77-0.47-0.8-0.92-0.26-4.42-3.02-6.44-5.47-6.44-1.46 0-2.76 0.69-3.75 2-0.22 0.29-0.58 0.44-0.94 0.38-0.37-0.05-0.67-0.3-0.79-0.64-0.77-2.09-2-3.94-3.75-5.65-4.04-3.91-9.62-4.96-14.92-2.79-4.45 1.82-7.81 6.73-7.81 11.42q0 0.82 0.1 1.59c0.06 0.5-0.26 0.97-0.75 1.09-2.59 0.64-6.92 2.61-6.92 8.58q-0.01 0.31 0.02 0.61c0.25 4.53 4.05 7.79 9.04 7.79z"/>
	</g>
</svg>